<?xml version="1.0" standalone="no"?>
<!DOCTYPE svg PUBLIC "-//W3C//DTD SVG 20010904//EN"
 "http://www.w3.org/TR/2001/REC-SVG-20010904/DTD/svg10.dtd">
<svg version="1.0" xmlns="http://www.w3.org/2000/svg"
 width="1024.000000pt" height="1024.000000pt" viewBox="0 0 1024.000000 1024.000000"
 preserveAspectRatio="xMidYMid meet">

<g transform="translate(0.000000,1024.000000) scale(0.100000,-0.100000)"
fill="#000000" stroke="none">
<path d="M0 5120 l0 -5120 5120 0 5120 0 0 5120 0 5120 -5120 0 -5120 0 0
-5120z m3860 1906 c351 -69 634 -241 828 -501 119 -161 225 -415 276 -666 49
-237 60 -382 61 -769 0 -376 -7 -468 -50 -686 -127 -631 -522 -1046 -1120
-1174 -86 -18 -152 -23 -470 -30 -203 -5 -544 -9 -757 -9 l-388 -1 0 1931 0
1930 768 -4 c667 -3 778 -6 852 -21z m3235 -4 c608 -116 997 -532 1129 -1207
90 -464 84 -1092 -14 -1487 -146 -588 -555 -989 -1122 -1099 -133 -26 -194
-28 -945 -34 l-653 -6 0 1931 0 1931 748 -4 c707 -4 753 -5 857 -25z"/>
<path d="M2940 5136 l0 -1323 61 -7 c116 -12 490 -7 589 9 172 26 289 80 401
183 224 207 309 508 309 1094 0 260 -12 434 -40 603 -76 447 -304 702 -675
755 -38 5 -199 10 -357 10 l-288 0 0 -1324z"/>
<path d="M6190 5136 l0 -1324 23 -6 c38 -10 542 -7 624 5 223 31 415 152 531
336 45 70 98 204 127 318 92 361 80 1074 -22 1400 -89 281 -267 475 -506 550
-109 35 -227 45 -514 45 l-263 0 0 -1324z"/>
</g>
</svg>
